<svg width="24" height="21" viewBox="0 0 24 21" xmlns="http://www.w3.org/2000/svg">
<path fill-rule="evenodd" clip-rule="evenodd" d="M2.74489 12.5055H0.817405C0.486982 12.5055 0.184111 12.3137 0.0602028 11.9986C-0.0637056 11.6834 0.00514859 11.3273 0.252965 11.0943L11.5011 0.22962C11.8178 -0.0855145 12.3409 -0.0718298 12.6576 0.243304L23.4238 11.108C23.6579 11.3409 23.7267 11.6972 23.6028 11.9986C23.4789 12.3 23.176 12.5055 22.8456 12.5055H20.5051V20.178C20.5051 20.6301 20.1334 21 19.679 21H14.3097C13.8553 21 13.4836 20.6301 13.4836 20.178V14.5606H10.0417V20.178C10.0417 20.6301 9.67001 21 9.21568 21H3.57094C3.11661 21 2.74489 20.6301 2.74489 20.178V12.5055ZM20.863 10.8614L12.0518 1.9833L2.85504 10.8614H3.57094C4.02528 10.8614 4.397 11.2313 4.397 11.6835V19.3559H8.38962V13.7386C8.38962 13.2865 8.76135 12.9165 9.21568 12.9165H14.3096C14.764 12.9165 15.1357 13.2865 15.1357 13.7386V19.3559H18.8529V11.6835C18.8529 11.2313 19.2247 10.8614 19.679 10.8614H20.863Z" />
</svg>
