<svg width="53" height="53" viewBox="0 0 53 53" fill="none" xmlns="http://www.w3.org/2000/svg">
<path d="M6.80833 26.4863C5.81236 31.4485 7.73754 35.2974 10.753 38.0351C13.7685 40.7728 17.8947 42.4059 23.5945 42.1614C29.2943 41.9169 34.8346 41.8184 39.224 38.9857C43.6272 36.1529 46.8933 30.5719 46.742 25.2679C46.5976 19.957 43.0291 14.9025 38.709 11.8045C34.3818 8.71342 29.3099 7.57196 24.7367 8.16534C20.1703 8.76547 16.1232 11.0933 13.0248 14.2865C9.9334 17.4727 7.79058 21.5242 6.80833 26.4863Z" fill="#EB514E"/>
<path d="M33.3647 38.6421C32.5871 36.1208 33.6239 35.3873 35.7408 35.3873C36.3457 35.3873 36.9505 35.3414 37.5121 35.2498C40.8387 34.608 41.5299 33.0493 39.845 29.932C37.9873 26.4938 34.704 24.0183 34.2288 19.6174C34.0992 18.4255 32.6303 17.5087 31.5934 16.6835C29.7358 15.2624 29.0928 16.7283 29.4334 18.0588C30.5474 18.1829 32.6374 20.7249 33.3647 22.1795C34.092 23.6342 34.2288 23.6974 33.6671 25.2102C32.5007 24.2475 32.3208 23.6342 31.5934 22.1795C30.2974 20.9418 29.8222 19.4341 28.5693 18.1505C26.3228 17.0044 25.6316 18.0129 25.6316 20.3968C25.6316 22.1388 26.1068 23.6974 26.9276 25.577C22.3482 24.5226 18.7625 25.7603 16.1703 29.5653C15.5223 30.528 14.5719 30.2988 13.7942 30.7113C11.8934 31.8116 10.8133 33.8745 12.4118 35.2956C14.8743 37.496 15.5655 40.8426 17.812 42.9972C18.028 43.1805 18.2008 43.3639 18.4169 43.5473C21.5706 43.5473 24.7243 43.5473 27.8349 43.5473C27.5757 41.2093 27.5757 41.2093 23.9899 40.8884C25.3292 39.7882 26.0636 38.5046 26.7116 37.1293C26.0636 32.9576 25.6748 32.5909 20.2745 31.0322C23.4715 29.1985 27.4029 31.7199 27.4893 35.7082C27.4893 36.6709 27.3597 37.5877 27.2733 38.5504C27.1869 38.8255 27.1005 39.1464 27.0141 39.4214C29.9086 39.3756 29.2173 41.9886 29.779 43.639C31.1182 43.5931 32.4575 43.5473 33.84 43.5014C33.84 43.3181 33.8831 43.1347 34.0127 42.9972C33.8399 41.5302 33.7967 40.0174 33.3647 38.6421Z" fill="white"/>
</svg>
